{
  "title": "Mohenjo.Daro.2016.1080p.WEB-DL.AVC.AAC-DDR",
  "uid": 15999290,
  "size": 7743832188,
  "categoryP": "video",
  "categoryS": "hd___movies",
  "magnet": "?xt=urn:btih:b16f84c9cf8794be17f94ce1c3993bc8be86bf15&amp;dn=Mohenjo.Daro.2016.1080p.WEB-DL.AVC.AAC-DDR&amp;tr=udp%3A%2F%2Ftracker.leechers-paradise.org%3A6969&amp;tr=udp%3A%2F%2Fzer0day.ch%3A1337&amp;tr=udp%3A%2F%2Fopen.demonii.com%3A1337&amp;tr=udp%3A%2F%2Ftracker.coppersurfer.tk%3A6969&amp;tr=udp%3A%2F%2Fexodus.desync.com%3A6969",
  "seeders": 65,
  "leechers": 245,
  "uploader": "SaM",
  "files": 2,
  "time": 1476106657,
  "description": "~ Mohenjo.Daro ~\r\n(A film by Ashutosh Gowariker)\r\n\r\n** 1080p / WEB-DL / AVC/ AAC2.0 **\r\n\r\n\r\nGeneral\r\nComplete name : Mohenjo.Daro.2016.1080p.WEB-DL.AVC.AAC-DDR.mp4\r\nFormat : MPEG-4\r\nFormat profile : Base Media\r\nCodec ID : isom\r\nFile size : 7.21 GiB\r\nDuration : 2h 48mn\r\nOverall bit rate mode : Variable\r\nOverall bit rate : 6 132 Kbps\r\nWriting application : Lavf56.15.102\r\n\r\nVideo\r\nID : 1\r\nFormat : AVC\r\nFormat/Info : Advanced Video Codec\r\nFormat profile :   \r\nFormat settings, CABAC : Yes\r\nFormat settings, ReFrames : 1 frame\r\nFormat settings, GOP : M=1, N=25\r\nCodec ID : avc1\r\nCodec ID/Info : Advanced Video Coding\r\nDuration : 2h 48mn\r\nBit rate mode : Constant\r\nBit rate : 6 000 Kbps\r\nWidth : 1 920 pixels\r\nHeight : 1 080 pixels\r\nDisplay aspect ratio : 16:9\r\nFrame rate mode : Constant\r\nFrame rate : 25.000 fps\r\nColor space : YUV\r\nChroma subsampling : 4:2:0\r\nBit depth : 8 bits\r\nScan type : Progressive\r\nBits/(Pixel*Frame) : 0.116\r\nStream size : 7.06 GiB (98%)\r\n\r\nAudio\r\nID : 2\r\nFormat : AAC\r\nFormat/Info : Advanced Audio Codec\r\nFormat profile : LC\r\nCodec ID : 40\r\nDuration : 2h 48mn\r\nBit rate mode : Variable\r\nBit rate : 125 Kbps\r\nMaximum bit rate : 128 Kbps\r\nChannel(s) : 2 channels\r\nChannel positions : Front: L R\r\nSampling rate : 48.0 KHz\r\nCompression mode : Lossy\r\nStream size : 151 MiB (2%)\r\n\r\n \nhttps://extraimago.com/image/wZHD \nhttps://extraimago.com/image/wZHg \nhttps://extraimago.com/image/wZHX \nhttps://extraimago.com/image/wZHG \nhttps://extraimago.com/image/wZHr \nhttps://extraimago.com/image/wZHp \nhttps://extraimago.com/image/wZHY \nhttps://extraimago.com/image/wZHC \nhttps://extraimago.com/image/wZHB \nhttps://extraimago.com/image/wZH4 \nhttps://extraimago.com/image/wZHe \nhttps://extraimago.com/image/wZHZ",
  "parsed": {
    "xt": "urn:btih:b16f84c9cf8794be17f94ce1c3993bc8be86bf15",
    "dn": "Mohenjo.Daro.2016.1080p.WEB-DL.AVC.AAC-DDR",
    "tr": [
      "udp://exodus.desync.com:6969",
      "udp://open.demonii.com:1337",
      "udp://tracker.coppersurfer.tk:6969",
      "udp://tracker.leechers-paradise.org:6969",
      "udp://zer0day.ch:1337"
    ],
    "infoHash": "b16f84c9cf8794be17f94ce1c3993bc8be86bf15",
    "infoHashBuffer": {
      "type": "Buffer",
      "data": [
        177,
        111,
        132,
        201,
        207,
        135,
        148,
        190,
        23,
        249,
        76,
        225,
        195,
        153,
        59,
        200,
        190,
        134,
        191,
        21
      ]
    },
    "name": "Mohenjo.Daro.2016.1080p.WEB-DL.AVC.AAC-DDR",
    "announce": [
      "udp://exodus.desync.com:6969",
      "udp://open.demonii.com:1337",
      "udp://tracker.coppersurfer.tk:6969",
      "udp://tracker.leechers-paradise.org:6969",
      "udp://zer0day.ch:1337"
    ],
    "urlList": []
  },
  "previous": 53,
  "peers": 44,
  "last_updated": "2016-12-27T10:30:59.409Z"
}